<svg width="178" height="45" viewBox="0 0 178 45" fill="none" xmlns="http://www.w3.org/2000/svg">
<g clip-path="url(#clip0_305_16)">
<path d="M68.95 19.9881C71.6211 19.9881 72.8131 21.7027 73.21 23.2384L76.9646 21.8815C76.2423 19.095 73.6427 16.1654 68.9142 16.1654C63.8592 16.1654 59.9246 20.0238 59.9246 25.3823C59.9246 30.6692 63.8592 34.6338 69.0215 34.6338C73.6427 34.6338 76.278 31.6684 77.1088 28.9534L73.4269 27.6323C73.0288 28.9534 71.7654 30.8469 69.0215 30.8469C66.3861 30.8469 64.1119 28.8831 64.1119 25.3823C64.1119 21.8815 66.3861 19.9881 68.95 19.9881ZM87.6631 30.9184C85.1004 30.9184 82.7534 28.9892 82.7534 25.3823C82.7534 21.7742 85.1004 19.9165 87.6631 19.9165C90.2627 19.9165 92.5727 21.7742 92.5727 25.3823C92.5727 29.025 90.2627 30.9184 87.6631 30.9184ZM87.6631 16.1654C82.4292 16.1654 78.5661 20.0596 78.5661 25.3823C78.5661 30.7396 82.4292 34.6338 87.6631 34.6338C92.9338 34.6338 96.7969 30.7396 96.7969 25.3823C96.7969 20.0596 92.9338 16.1654 87.6631 16.1654ZM103.888 24.06C103.888 21.7742 105.152 19.9523 107.535 19.9523C110.17 19.9523 111.145 21.6669 111.145 23.8096V34.0984H115.332V23.0954C115.332 19.2738 113.275 16.2011 108.979 16.2011C107.029 16.2011 104.936 17.0227 103.78 19.0234V16.7019H99.7011V34.0984H103.888V24.06ZM122.257 25.3465C122.257 22.0234 124.278 19.9165 127.022 19.9165C129.766 19.9165 131.643 21.9888 131.643 25.3108C131.643 28.6327 129.73 30.8827 126.986 30.8827C124.134 30.8827 122.257 28.6684 122.257 25.3465ZM135.686 8.23499H131.607V18.7373C131.065 17.6308 129.513 16.2369 126.445 16.2369C121.498 16.2369 118.069 20.3446 118.069 25.3465C118.069 30.5977 121.463 34.5265 126.517 34.5265C129.008 34.5265 130.849 33.3115 131.679 31.8473C131.679 32.5615 131.787 33.705 131.86 34.0984H135.867C135.83 33.8123 135.686 32.49 135.686 30.9184V8.23499ZM151.142 32.1692C151.142 32.8834 151.215 33.705 151.286 34.0984H155.293C155.222 33.4546 155.113 32.3481 155.113 30.9184V16.7019H150.925V26.9896C150.925 29.2754 149.662 30.8827 147.243 30.8827C144.716 30.8827 143.705 29.0608 143.705 26.9181V16.7019H139.517V27.6681C139.517 31.5265 141.972 34.5981 146.16 34.5981C148.218 34.5981 150.275 33.7408 151.142 32.1692ZM163.301 34.0984V16.7019H159.15V34.0984H163.301ZM158.5 10.5934C158.5 12.0934 159.728 13.2727 161.208 13.2727C162.724 13.2727 163.952 12.0934 163.952 10.5934C163.952 9.09229 162.724 7.87845 161.208 7.87845C159.728 7.87845 158.5 9.09229 158.5 10.5934ZM172.843 11.3792H169.053V13.9869C169.053 15.5227 168.223 16.7019 166.346 16.7019H165.443V20.3804H168.692V29.1323C168.692 32.3838 170.713 34.3119 173.963 34.3119C175.479 34.3119 176.274 34.0269 176.527 33.9196V30.4904C176.345 30.5261 175.66 30.6334 175.082 30.6334C173.53 30.6334 172.843 29.9896 172.843 28.4538V20.3804H176.49V16.7019H172.843V11.3792Z" fill="#333333"/>
<path opacity="0.4" d="M37.6565 31.5946L44.6269 19.6281H37.9311L30.9608 31.5946H37.6565Z" fill="#333333"/>
<path opacity="0.7" d="M15.4196 32.2281L19.4258 39.1073L22.5434 44.4588L25.8919 38.7115L18.7681 26.4808L15.4196 32.2281Z" fill="#333333"/>
<path d="M26.5865 38.3135H48.3561L41.5127 26.5639L38.1215 32.3885L30.0342 32.3827L26.2958 26.0827H19.4627L26.5865 38.3135Z" fill="#333333"/>
<path opacity="0.4" d="M26.5865 39.1073L23.2369 44.8569H45.0065L48.3561 39.1073H26.5865Z" fill="#333333"/>
<path opacity="0.7" d="M30.82 19.2312L26.9904 25.6858L30.2638 31.2023L37.2365 19.2312L26.3511 0.541168L19.5088 12.2908H26.7031L30.82 19.2312Z" fill="#333333"/>
<path d="M44.6269 18.8342L33.7404 0.143066H27.0458L37.9334 18.8342H44.6269ZM29.6546 18.8342L26.2438 13.0846H11.8923L15.2408 18.8342H29.6546Z" fill="#333333"/>
<path opacity="0.7" d="M11.1977 13.4827L0.312286 32.1715L3.65844 37.9154L14.5438 19.2265L11.1977 13.4827Z" fill="#333333"/>
<path opacity="0.4" d="M18.5361 25.2889H26.2946L29.6546 19.6281H15.2408L4.35191 38.3146H18.0377L14.4942 32.2292L18.5361 25.2889Z" fill="#333333"/>
</g>
<defs>
<clipPath id="clip0_305_16">
<rect width="177.692" height="45" fill="white" transform="translate(0.307678)"/>
</clipPath>
</defs>
</svg>
