<svg width="206" height="47" viewBox="0 0 206 47" fill="none" xmlns="http://www.w3.org/2000/svg">
<g clip-path="url(#clip0_350_19)">
<path d="M6.62217 7.9231C6.62217 6.18512 5.21326 4.77625 3.47531 4.77625C1.73735 4.77625 0.328461 6.18512 0.328461 7.9231C0.328461 8.95372 0.823536 9.86694 1.5872 10.4405V23.028C1.5872 24.9624 2.92984 26.5832 4.73406 27.0094V29.951C4.73406 38.8148 11.9194 46 20.783 46C29.6466 46 36.832 38.8148 36.832 29.951V27.0094C38.636 26.5832 39.9788 24.9624 39.9788 23.028V10.4405C40.7426 9.86694 41.2376 8.95372 41.2376 7.9231C41.2376 6.18512 39.8287 4.77625 38.0907 4.77625C36.3527 4.77625 34.9438 6.18512 34.9438 7.9231C34.9438 8.77426 35.2818 9.54533 35.8291 10.111L34.8878 12.7866C33.2732 10.7809 30.7978 9.49652 28.0207 9.49652H13.5452C10.7681 9.49652 8.29274 10.7809 6.67828 12.7866L5.73686 10.111C6.28429 9.54533 6.62217 8.77426 6.62217 7.9231Z" fill="#333333"/>
<path d="M36.2026 7.92312C36.2026 6.88034 37.0478 6.035 38.0907 6.035C39.1336 6.035 39.9788 6.88034 39.9788 7.92312C39.9788 8.7452 39.4533 9.44459 38.7201 9.70376V23.028C38.7201 24.5922 37.4522 25.8601 35.8879 25.8601H34.9438V16.4196L37.3257 9.64986C36.6642 9.35632 36.2026 8.69359 36.2026 7.92312Z" fill="#333333"/>
<path d="M5.36341 7.92312C5.36341 6.88034 4.51807 6.035 3.4753 6.035C2.43252 6.035 1.58719 6.88034 1.58719 7.92312C1.58719 8.7452 2.11259 9.44459 2.84593 9.70376V23.028C2.84593 24.5922 4.11392 25.8601 5.6781 25.8601H6.62215V16.4196L4.24021 9.64986C4.9019 9.35632 5.36341 8.69359 5.36341 7.92312Z" fill="#333333"/>
<path d="M5.9928 18.3077C5.9928 14.1366 9.37415 10.7553 13.5452 10.7553H28.0208C32.1919 10.7553 35.5732 14.1366 35.5732 18.3077V29.9511C35.5732 38.1193 28.9514 44.7413 20.783 44.7413C12.6146 44.7413 5.9928 38.1193 5.9928 29.9511V18.3077Z" fill="#CCCCCC"/>
<path d="M14.1746 10.7553H27.3914V20.8252H14.1746V10.7553Z" fill="white"/>
<path d="M17.9508 10.4406H21.4124C22.6289 10.4406 23.6152 11.4268 23.6152 12.6434V16.4196C23.6152 17.9837 22.3472 19.2517 20.783 19.2517C19.2188 19.2517 17.9508 17.9837 17.9508 16.4196V10.4406Z" fill="#333333"/>
<path d="M16.0627 34.042H25.5033V36.5594H16.0627V34.042Z" fill="#333333"/>
<path d="M8.82495 22.7133C8.82495 21.6705 9.67029 20.8252 10.7131 20.8252H30.8529C31.8958 20.8252 32.741 21.6705 32.741 22.7133V27.7482C32.741 28.791 31.8958 29.6364 30.8529 29.6364H10.7131C9.67029 29.6364 8.82495 28.791 8.82495 27.7482V22.7133Z" fill="#333333"/>
<path d="M11.9718 24.2867C11.9718 23.2439 12.8172 22.3986 13.8599 22.3986C14.9027 22.3986 15.7481 23.244 15.7481 24.2867V26.1748C15.7481 27.2176 14.9027 28.0629 13.8599 28.0629C12.8172 28.0629 11.9718 27.2176 11.9718 26.1748V24.2867Z" fill="#EEEEEE"/>
<path d="M25.818 24.2867C25.818 23.2439 26.6633 22.3986 27.7061 22.3986C28.7488 22.3986 29.5942 23.244 29.5942 24.2867V26.1748C29.5942 27.2176 28.7488 28.0629 27.7061 28.0629C26.6633 28.0629 25.818 27.2176 25.818 26.1748V24.2867Z" fill="#EEEEEE"/>
<path d="M12.5262 42.2238C8.58492 39.5669 5.9928 35.0619 5.9928 29.9511V29.8317L12.6012 35.3007V42.2238H12.5262Z" fill="#333333"/>
<path d="M35.5732 29.8317V29.9511C35.5732 35.0619 32.9811 39.5669 29.0398 42.2238H28.9648V35.3007L35.5732 29.8317Z" fill="#333333"/>
<path fill-rule="evenodd" clip-rule="evenodd" d="M14.2286 8.60645C13.8686 8.96645 13.7609 9.50786 13.9557 9.97822C14.1506 10.4486 14.6095 10.7553 15.1187 10.7553H19.2415L18.015 14.4495C17.8311 15.0033 18.0519 15.6108 18.5484 15.9173C19.045 16.2238 19.687 16.1488 20.0996 15.7362L27.3374 8.49848C27.6974 8.13848 27.8051 7.59706 27.6103 7.1267C27.4154 6.65634 26.9564 6.34968 26.4473 6.34968H22.3245L23.551 2.6554C23.7349 2.10163 23.5141 1.49409 23.0175 1.18763C22.521 0.881158 21.879 0.956108 21.4664 1.3687L14.2286 8.60645Z" fill="#333333"/>
<path d="M15.1187 9.4965L22.3564 2.25876L20.5803 7.60839H26.4474L19.2096 14.8462L20.9858 9.4965H15.1187Z" fill="#CCCCCC"/>
</g>
<path d="M58.3295 35.092C59.3855 35.236 60.4175 35.524 61.4255 35.956V37H52.2815V35.956C52.6895 35.764 53.1095 35.596 53.5415 35.452C53.9735 35.308 54.4175 35.188 54.8735 35.092V13.744C54.3455 13.624 53.8655 13.492 53.4335 13.348C53.0015 13.18 52.6175 13.012 52.2815 12.844V11.8H69.1655C69.1415 12.736 69.0935 13.696 69.0215 14.68C68.9735 15.664 68.8895 16.648 68.7695 17.632H67.8335L66.3575 13.672H58.3295V23.896H64.7375L66.0335 21.628H66.8975C67.0175 22.708 67.0655 23.8 67.0415 24.904C67.0415 25.984 66.9935 27.076 66.8975 28.18H66.0335L64.7375 25.768H58.3295V35.092ZM80.2876 37H72.2956V36.1C73.0876 35.716 73.8796 35.428 74.6716 35.236V12.448L71.9356 12.16V11.224C72.5596 10.936 73.3396 10.684 74.2756 10.468C75.2116 10.252 76.1236 10.072 77.0116 9.928H77.9116V35.236C78.7036 35.428 79.4956 35.716 80.2876 36.1V37ZM96.4077 32.284C96.4077 32.812 96.4197 33.268 96.4437 33.652C96.4677 34.036 96.4917 34.444 96.5157 34.876L98.9997 35.236V35.992C98.3997 36.304 97.7277 36.58 96.9837 36.82C96.2637 37.06 95.5677 37.24 94.8957 37.36H93.9957C93.7557 36.808 93.6117 36.208 93.5637 35.56C93.5157 34.888 93.4797 34.156 93.4557 33.364H93.2757C93.1797 33.844 92.9877 34.336 92.6997 34.84C92.4357 35.32 92.0757 35.752 91.6197 36.136C91.1877 36.52 90.6717 36.832 90.0717 37.072C89.4717 37.312 88.7877 37.432 88.0197 37.432C86.5557 37.432 85.3557 36.988 84.4197 36.1C83.5077 35.212 83.0517 34.048 83.0517 32.608C83.0517 31.504 83.2677 30.604 83.6997 29.908C84.1557 29.188 84.8157 28.624 85.6797 28.216C86.5437 27.808 87.6117 27.52 88.8837 27.352C90.1557 27.16 91.6317 27.016 93.3117 26.92C93.4077 25.888 93.4317 24.964 93.3837 24.148C93.3597 23.308 93.2277 22.6 92.9877 22.024C92.7717 21.424 92.4357 20.968 91.9797 20.656C91.5477 20.32 90.9717 20.152 90.2517 20.152C89.9157 20.152 89.5317 20.176 89.0997 20.224C88.6917 20.248 88.2837 20.344 87.8757 20.512L86.1837 24.832H85.2477C85.0077 24.112 84.7917 23.368 84.5997 22.6C84.4317 21.832 84.3237 21.076 84.2757 20.332C85.1877 19.78 86.1957 19.348 87.2997 19.036C88.4277 18.724 89.6757 18.568 91.0437 18.568C92.2677 18.568 93.2397 18.748 93.9597 19.108C94.7037 19.444 95.2677 19.888 95.6517 20.44C96.0357 20.992 96.2877 21.604 96.4077 22.276C96.5277 22.948 96.5877 23.62 96.5877 24.292C96.5877 25.732 96.5517 27.124 96.4797 28.468C96.4317 29.788 96.4077 31.06 96.4077 32.284ZM89.4597 35.2C90.0597 35.2 90.5877 35.08 91.0437 34.84C91.4997 34.6 91.8837 34.312 92.1957 33.976C92.5077 33.64 92.7597 33.304 92.9517 32.968C93.1437 32.608 93.2757 32.308 93.3477 32.068V28.288C91.9557 28.288 90.8157 28.36 89.9277 28.504C89.0397 28.648 88.3437 28.876 87.8397 29.188C87.3357 29.5 86.9877 29.896 86.7957 30.376C86.6037 30.832 86.5077 31.36 86.5077 31.96C86.5077 32.992 86.7717 33.796 87.2997 34.372C87.8277 34.924 88.5477 35.2 89.4597 35.2ZM110.443 32.896C110.443 32.224 110.227 31.66 109.795 31.204C109.387 30.724 108.859 30.28 108.211 29.872C107.563 29.464 106.867 29.068 106.123 28.684C105.403 28.3 104.719 27.856 104.071 27.352C103.423 26.824 102.883 26.224 102.451 25.552C102.043 24.88 101.839 24.052 101.839 23.068C101.839 22.42 101.983 21.82 102.271 21.268C102.583 20.716 102.991 20.248 103.495 19.864C103.999 19.456 104.587 19.144 105.259 18.928C105.931 18.688 106.651 18.568 107.419 18.568C108.715 18.568 109.771 18.64 110.587 18.784C111.427 18.928 112.231 19.132 112.999 19.396C112.903 20.164 112.783 20.944 112.639 21.736C112.519 22.504 112.339 23.296 112.099 24.112H111.199L109.831 20.44C109.543 20.32 109.219 20.248 108.859 20.224C108.499 20.176 108.127 20.152 107.743 20.152C107.311 20.152 106.927 20.236 106.591 20.404C106.279 20.548 106.003 20.74 105.763 20.98C105.547 21.22 105.379 21.496 105.259 21.808C105.139 22.12 105.079 22.432 105.079 22.744C105.079 23.392 105.283 23.956 105.691 24.436C106.123 24.892 106.663 25.324 107.311 25.732C107.959 26.116 108.643 26.5 109.363 26.884C110.107 27.268 110.803 27.7 111.451 28.18C112.099 28.66 112.627 29.224 113.035 29.872C113.467 30.496 113.683 31.252 113.683 32.14C113.683 32.956 113.503 33.688 113.143 34.336C112.807 34.984 112.327 35.536 111.703 35.992C111.103 36.448 110.395 36.796 109.579 37.036C108.787 37.3 107.935 37.432 107.023 37.432C105.991 37.432 105.043 37.336 104.179 37.144C103.315 36.976 102.415 36.724 101.479 36.388C101.527 35.524 101.635 34.696 101.803 33.904C101.971 33.088 102.187 32.308 102.451 31.564H103.351L104.935 35.488C105.199 35.68 105.511 35.788 105.871 35.812C106.255 35.836 106.603 35.848 106.915 35.848C107.971 35.848 108.823 35.56 109.471 34.984C110.119 34.408 110.443 33.712 110.443 32.896ZM135.918 37H128.142V36.1C128.718 35.788 129.438 35.5 130.302 35.236V26.812C130.302 24.94 130.038 23.476 129.51 22.42C128.982 21.34 128.022 20.8 126.63 20.8C126.006 20.8 125.442 20.92 124.938 21.16C124.434 21.376 123.978 21.664 123.57 22.024C123.162 22.384 122.814 22.804 122.526 23.284C122.238 23.74 122.022 24.22 121.878 24.724V35.236C122.262 35.332 122.622 35.44 122.958 35.56C123.318 35.68 123.666 35.86 124.002 36.1V37H116.262V36.1C117.006 35.716 117.798 35.428 118.638 35.236V12.448L115.902 12.16V11.224C116.598 10.936 117.402 10.684 118.314 10.468C119.25 10.252 120.138 10.072 120.978 9.928H121.878V22.636H121.914C122.418 21.508 123.138 20.548 124.074 19.756C125.034 18.964 126.186 18.568 127.53 18.568C128.49 18.568 129.342 18.688 130.086 18.928C130.854 19.144 131.49 19.54 131.994 20.116C132.498 20.692 132.882 21.472 133.146 22.456C133.41 23.416 133.542 24.64 133.542 26.128V35.236C133.95 35.332 134.358 35.44 134.766 35.56C135.174 35.68 135.558 35.86 135.918 36.1V37ZM139.299 12.448L136.563 12.16V11.224C137.307 10.912 138.135 10.66 139.047 10.468C139.983 10.276 140.847 10.096 141.639 9.928H142.539V22.564H142.611C143.019 21.34 143.703 20.368 144.663 19.648C145.647 18.928 146.727 18.568 147.903 18.568C150.087 18.568 151.755 19.312 152.907 20.8C154.083 22.288 154.671 24.58 154.671 27.676C154.671 30.844 153.867 33.244 152.259 34.876C150.675 36.508 148.383 37.324 145.383 37.324C144.783 37.324 144.183 37.276 143.583 37.18C142.983 37.108 142.407 37.012 141.855 36.892C141.303 36.772 140.799 36.628 140.343 36.46C139.911 36.292 139.563 36.124 139.299 35.956V12.448ZM146.931 20.8C145.779 20.8 144.843 21.196 144.123 21.988C143.403 22.756 142.875 23.74 142.539 24.94V34.984C142.971 35.224 143.499 35.416 144.123 35.56C144.747 35.68 145.407 35.74 146.103 35.74C147.687 35.74 148.935 35.056 149.847 33.688C150.759 32.296 151.215 30.292 151.215 27.676C151.215 26.74 151.131 25.852 150.963 25.012C150.819 24.172 150.567 23.44 150.207 22.816C149.871 22.192 149.427 21.7 148.875 21.34C148.347 20.98 147.699 20.8 146.931 20.8ZM157.62 28C157.62 26.488 157.812 25.156 158.196 24.004C158.604 22.828 159.18 21.844 159.924 21.052C160.668 20.236 161.556 19.624 162.588 19.216C163.644 18.784 164.808 18.568 166.08 18.568C167.568 18.568 168.852 18.796 169.932 19.252C171.012 19.708 171.888 20.356 172.56 21.196C173.256 22.012 173.76 22.996 174.072 24.148C174.408 25.3 174.576 26.584 174.576 28C174.576 31.024 173.808 33.352 172.272 34.984C170.736 36.616 168.672 37.432 166.08 37.432C164.64 37.432 163.392 37.216 162.336 36.784C161.28 36.328 160.404 35.692 159.708 34.876C159.012 34.036 158.484 33.04 158.124 31.888C157.788 30.712 157.62 29.416 157.62 28ZM161.076 28C161.076 29.08 161.172 30.1 161.364 31.06C161.58 32.02 161.904 32.86 162.336 33.58C162.792 34.276 163.38 34.828 164.1 35.236C164.82 35.644 165.684 35.848 166.692 35.848C167.988 35.848 169.044 35.212 169.86 33.94C170.7 32.668 171.12 30.688 171.12 28C171.12 26.896 171.012 25.876 170.796 24.94C170.604 23.98 170.292 23.152 169.86 22.456C169.428 21.736 168.876 21.172 168.204 20.764C167.532 20.356 166.728 20.152 165.792 20.152C164.376 20.152 163.236 20.788 162.372 22.06C161.508 23.332 161.076 25.312 161.076 28ZM176.582 19.864C177.494 19.288 178.454 18.88 179.462 18.64V15.58C179.774 15.34 180.134 15.112 180.542 14.896C180.974 14.656 181.394 14.452 181.802 14.284H182.702V19H188.102V20.8H182.702V31.24C182.702 32.68 182.93 33.7 183.386 34.3C183.842 34.9 184.526 35.2 185.438 35.2C185.87 35.2 186.41 35.176 187.058 35.128C187.706 35.056 188.258 34.936 188.714 34.768L188.966 35.308C188.774 35.524 188.498 35.752 188.138 35.992C187.802 36.232 187.406 36.46 186.95 36.676C186.518 36.892 186.038 37.072 185.51 37.216C184.982 37.36 184.442 37.432 183.89 37.432C182.45 37.432 181.346 37.024 180.578 36.208C179.834 35.392 179.462 34.072 179.462 32.248V20.8H176.582V19.864ZM200.022 32.896C200.022 32.224 199.806 31.66 199.374 31.204C198.966 30.724 198.438 30.28 197.79 29.872C197.142 29.464 196.446 29.068 195.702 28.684C194.982 28.3 194.298 27.856 193.65 27.352C193.002 26.824 192.462 26.224 192.03 25.552C191.622 24.88 191.418 24.052 191.418 23.068C191.418 22.42 191.562 21.82 191.85 21.268C192.162 20.716 192.57 20.248 193.074 19.864C193.578 19.456 194.166 19.144 194.838 18.928C195.51 18.688 196.23 18.568 196.998 18.568C198.294 18.568 199.35 18.64 200.166 18.784C201.006 18.928 201.81 19.132 202.578 19.396C202.482 20.164 202.362 20.944 202.218 21.736C202.098 22.504 201.918 23.296 201.678 24.112H200.778L199.41 20.44C199.122 20.32 198.798 20.248 198.438 20.224C198.078 20.176 197.706 20.152 197.322 20.152C196.89 20.152 196.506 20.236 196.17 20.404C195.858 20.548 195.582 20.74 195.342 20.98C195.126 21.22 194.958 21.496 194.838 21.808C194.718 22.12 194.658 22.432 194.658 22.744C194.658 23.392 194.862 23.956 195.27 24.436C195.702 24.892 196.242 25.324 196.89 25.732C197.538 26.116 198.222 26.5 198.942 26.884C199.686 27.268 200.382 27.7 201.03 28.18C201.678 28.66 202.206 29.224 202.614 29.872C203.046 30.496 203.262 31.252 203.262 32.14C203.262 32.956 203.082 33.688 202.722 34.336C202.386 34.984 201.906 35.536 201.282 35.992C200.682 36.448 199.974 36.796 199.158 37.036C198.366 37.3 197.514 37.432 196.602 37.432C195.57 37.432 194.622 37.336 193.758 37.144C192.894 36.976 191.994 36.724 191.058 36.388C191.106 35.524 191.214 34.696 191.382 33.904C191.55 33.088 191.766 32.308 192.03 31.564H192.93L194.514 35.488C194.778 35.68 195.09 35.788 195.45 35.812C195.834 35.836 196.182 35.848 196.494 35.848C197.55 35.848 198.402 35.56 199.05 34.984C199.698 34.408 200.022 33.712 200.022 32.896Z" fill="black"/>
<defs>
<clipPath id="clip0_350_19">
<rect width="40.9091" height="45" fill="white" transform="translate(0.328461 1)"/>
</clipPath>
</defs>
</svg>
