<svg width="189" height="46" viewBox="0 0 189 46" fill="none" xmlns="http://www.w3.org/2000/svg">
<g clip-path="url(#clip0_305_13)">
<path d="M38.7591 14.7253L15.1095 1.07095L12.1533 2.77898V6.19176L9.19707 4.48373L6.24087 6.19176V9.60453L3.28467 7.8965L0.328461 9.60453V36.9133L3.28467 38.6213L6.24087 36.9133V40.3261L9.19707 42.0341L12.1533 40.3261V43.7388L15.1095 45.4469L38.7591 31.7925V28.3797L35.8029 26.6717L38.7591 24.9637V21.5509L35.8029 19.8429L38.7591 18.1348V14.7253ZM6.24087 33.5005L3.28467 35.2085V11.3126L6.24087 13.0206V33.5005ZM15.1095 35.2053V31.7925L26.9343 24.9669L29.8905 26.675L15.1095 35.2053ZM23.9781 23.2589L15.1095 28.3797V18.1381L23.9781 23.2589ZM26.9343 21.5509L15.1095 14.7253V11.3126L29.8905 19.8461L26.9343 21.5509ZM9.19707 7.8965L12.1533 9.60453V13.0173L9.19707 11.3093V7.8965ZM9.19707 14.7253L12.1533 16.4334V30.0877L9.19707 31.7958V14.7253ZM9.19707 35.2053L12.1533 33.4972V36.91L9.19707 38.618V35.2053ZM35.8029 30.0845L15.1095 42.0308V38.618L32.8467 28.3764L35.8029 30.0845ZM35.8029 23.2589L32.8467 24.9669L29.8905 23.2589L32.8467 21.5509L35.8029 23.2589ZM32.8467 18.1381L15.1095 7.8965V4.48373L35.8029 16.4301L32.8467 18.1381Z" fill="#333333"/>
<path d="M51.0405 35.2053H47.6277V11.3126H58.0402C62.8194 11.3126 65.7197 14.2129 65.7197 18.4797C65.7197 22.7465 62.8194 25.6469 58.0402 25.6469H51.0438V35.2053H51.0405ZM62.3069 18.4797C62.3069 16.0918 60.9405 14.2129 58.0402 14.2129H51.0438V22.7465H58.0402C60.9405 22.7465 62.3069 20.8677 62.3069 18.4797ZM66.9843 22.0633C67.3259 19.2286 69.7139 16.9425 74.5292 16.9425C77.4657 16.9425 79.9555 17.7275 81.2201 19.8429C81.7653 20.7658 82.0741 21.9943 82.0741 23.4264V35.202H78.796V32.9815C77.7712 34.348 75.7248 35.7111 72.8212 35.7111C69.2015 35.7111 66.1303 33.8323 66.1303 29.9071C66.1303 26.8359 68.2128 24.6516 72.6504 24.2739L78.796 23.7615V23.4199C78.796 21.0319 77.7712 19.4947 74.5292 19.4947C71.9343 19.4947 70.535 20.5195 70.3642 22.0534H66.9843V22.0633ZM78.7927 27.5257V26.1593L72.9887 26.6717C70.5975 26.8753 69.4051 28.0381 69.4051 29.9137C69.4051 32.3049 71.1132 33.1556 73.1595 33.1556C76.234 33.1589 78.7927 31.1093 78.7927 27.5257ZM92.1745 20.1877C89.7865 20.1877 88.2493 21.5542 88.2493 24.6253V35.2085H84.9712V17.4549H88.2493V19.5045C89.1033 17.9673 90.4664 17.1133 93.0285 17.1133H93.9515V20.1845H92.1745V20.1877ZM94.9402 22.0633C95.2818 19.2286 97.6697 16.9425 102.485 16.9425C105.422 16.9425 107.911 17.7275 109.176 19.8429C109.721 20.7658 110.03 21.9943 110.03 23.4264V35.202H106.752V32.9815C105.727 34.348 103.681 35.7111 100.777 35.7111C97.1573 35.7111 94.0861 33.8323 94.0861 29.9071C94.0861 26.8359 96.1686 24.6516 100.606 24.2739L106.752 23.7615V23.4199C106.752 21.0319 105.727 19.4947 102.485 19.4947C99.8902 19.4947 98.4909 20.5195 98.3201 22.0534H94.9402V22.0633ZM106.752 27.5257V26.1593L100.948 26.6717C98.5566 26.8753 97.3642 28.0381 97.3642 29.9137C97.3642 32.3049 99.0723 33.1556 101.119 33.1556C104.19 33.1589 106.752 31.1093 106.752 27.5257ZM126.141 32.8173C125.116 34.5253 123.07 35.7177 120.337 35.7177C115.013 35.7177 112.112 31.4509 112.112 26.3301C112.112 21.2093 115.013 16.9425 120.337 16.9425C123.067 16.9425 125.116 18.1381 126.141 19.8429V11.3126H129.416V35.2085H126.138V32.8173H126.141ZM120.85 19.6753C117.266 19.6753 115.387 22.5757 115.387 26.3301C115.387 30.0845 117.266 32.9881 120.85 32.9881C124.433 32.9881 126.312 29.9169 126.312 26.3301C126.312 22.7465 124.433 19.6753 120.85 19.6753ZM142.049 32.4757V35.2053H131.535V32.4757H135.154V20.1877H131.535V17.4582H138.429V32.479H142.049V32.4757ZM138.429 14.7253H135.151V11.3126H138.429V14.7253ZM155.838 32.4757C155.155 33.5005 153.279 35.0345 150.205 35.0345C145.222 35.0345 141.98 30.9385 141.98 25.9885C141.98 21.0385 145.222 16.9425 150.205 16.9425C153.276 16.9425 155.155 18.4797 155.838 19.5012V17.4516H159.116V33.3231C159.116 38.9564 155.874 41.8567 150.717 41.8567C146.756 41.8567 143.855 39.8071 143.172 36.7359H146.585C146.894 37.9644 148.155 39.2947 150.714 39.2947C154.468 39.2947 155.835 36.9067 155.835 33.3199V32.4757H155.838ZM150.55 19.6753C147.308 19.6753 145.258 22.5757 145.258 25.9918C145.258 29.4045 147.304 32.3082 150.55 32.3082C153.962 32.3082 156.012 29.4078 156.012 25.9918C156.009 22.5757 153.962 19.6753 150.55 19.6753ZM165.396 19.5045C166.421 17.6257 168.468 16.9458 170.517 16.9458C172.905 16.9458 175.126 17.9706 176.15 20.0169C177.175 18.1381 179.051 16.9458 182.125 16.9458C185.88 16.9458 188.612 19.1662 188.612 23.6005V35.2053H185.334V24.1129C185.334 21.2126 184.139 19.6753 181.442 19.6753C179.222 19.6753 177.004 21.0418 177.004 24.6253V35.2085H173.726V24.1162C173.726 21.2158 172.531 19.6786 169.834 19.6786C167.614 19.6786 165.396 21.045 165.396 24.6286V35.2118H162.118V17.4549H165.396V19.5045Z" fill="#333333"/>
</g>
<defs>
<clipPath id="clip0_305_13">
<rect width="188.869" height="45" fill="white" transform="translate(0 0.742493)"/>
</clipPath>
</defs>
</svg>
