<svg width="130" height="45" viewBox="0 0 130 45" fill="none" xmlns="http://www.w3.org/2000/svg">
<g clip-path="url(#clip0_305_7)">
<path d="M0 44.2537V36.3037L18.6332 8.10374H2.09521V0.742493H28.0654V7.57124L8.653 36.8962H28.8297V44.2575H0V44.2537Z" fill="#333333"/>
<path d="M28.2742 22.7662C28.2742 17.5837 29.0384 13.3125 30.5595 9.96C32.0843 6.6075 34.0751 4.10625 36.5357 2.4675C38.9963 0.82125 41.975 0 45.4795 0C50.5572 0 54.6917 1.95 57.8867 5.84625C61.0817 9.74625 62.6811 15.2962 62.6811 22.5C62.6811 29.7037 60.9885 35.4712 57.6034 39.5662C54.6321 43.1887 50.5982 44.9962 45.5019 44.9962C40.4055 44.9962 36.3157 43.2075 33.3444 39.6262C29.963 35.5312 28.2704 29.91 28.2742 22.7662ZM35.6521 22.47C35.6521 27.4762 36.5991 31.23 38.4892 33.735C40.3794 36.24 42.7244 37.4925 45.5242 37.4925C48.3203 37.4925 50.6765 36.2512 52.5294 33.7687C54.3823 31.2862 55.3069 27.4725 55.3069 22.3237C55.3069 17.1787 54.4046 13.5487 52.6002 11.1337C50.7995 8.7225 48.4359 7.51125 45.5205 7.51125C42.6051 7.51125 40.2303 8.72625 38.3998 11.1637C36.5655 13.5937 35.6521 17.3625 35.6521 22.47Z" fill="#333333"/>
<path d="M64.6906 44.2537V0.742493H79.7671C83.622 0.742493 86.3771 1.13249 88.0287 1.91249C89.684 2.69624 91.041 4.04999 92.0998 5.97749C93.1623 7.90499 93.6917 10.2187 93.6917 12.9075C93.6917 16.3125 92.8827 19.05 91.2572 21.1312C89.6392 23.2125 87.3352 24.5175 84.3416 25.05C85.8775 26.1562 87.1451 27.3712 88.148 28.6875C89.1508 30.0037 90.5191 32.3625 92.2489 35.7675L96.5586 44.2575H88.0138L82.8279 34.7887C80.9639 31.365 79.6963 29.2237 79.0252 28.3612C78.3542 27.4987 77.6458 26.9062 76.9002 26.58C76.1508 26.2537 74.9541 26.0887 73.2988 26.0887H71.8225V44.2537H64.6906ZM71.8337 19.1437H77.1463C80.3935 19.1437 82.4588 19.0012 83.3424 18.7125C84.2297 18.4237 84.9455 17.8462 85.4973 16.9762C86.0453 16.1062 86.3212 14.9512 86.3212 13.5037C86.3212 12.0562 86.0453 11.0062 85.4973 10.1662C84.9455 9.32624 84.1999 8.74874 83.2529 8.42999C82.5819 8.21249 80.647 8.10374 77.4408 8.10374H71.8337V19.1437Z" fill="#333333"/>
<path d="M130 44.2537H122.238L119.132 34.3987H104.932L101.998 44.2537H94.3851L108.198 0.742493H115.785L130 44.2537ZM116.825 27.0375L111.926 10.89L107.12 27.0375H116.825Z" fill="#333333"/>
</g>
<defs>
<clipPath id="clip0_305_7">
<rect width="130" height="45" fill="white"/>
</clipPath>
</defs>
</svg>
